<?xml version="1.0" standalone="no"?>
<!DOCTYPE svg PUBLIC "-//W3C//DTD SVG 20010904//EN"
 "http://www.w3.org/TR/2001/REC-SVG-20010904/DTD/svg10.dtd">
<svg version="1.0" xmlns="http://www.w3.org/2000/svg"
 width="1386.000000pt" height="1386.000000pt" viewBox="0 0 1386.000000 1386.000000"
 preserveAspectRatio="xMidYMid meet">
<metadata>
Created by potrace 1.14, written by Peter Selinger 2001-2017
</metadata>
<g transform="translate(0.000000,1386.000000) scale(0.100000,-0.100000)"
fill="#000000" stroke="none">
<path d="M3370 6930 l0 -3590 3578 2 3577 3 3 2043 c1 1123 -1 2042 -6 2042
-4 0 -212 -205 -462 -455 l-455 -455 -5 -1118 -5 -1117 -2658 -3 -2657 -2 2
2652 3 2653 2585 3 2585 2 457 457 c252 252 458 461 458 465 0 5 -1575 8
-3500 8 l-3500 0 0 -3590z"/>
<path d="M9226 8698 c-984 -981 -1794 -1784 -1800 -1786 -6 -1 -389 376 -851
838 -462 462 -847 840 -855 840 -8 0 -223 -208 -478 -463 -332 -332 -461 -467
-456 -477 4 -8 600 -605 1323 -1327 l1316 -1312 2269 2265 2270 2265 -470 470
c-258 258 -471 469 -474 469 -3 0 -811 -802 -1794 -1782z"/>
</g>
</svg>
